<svg width="48" height="59" viewBox="0 0 48 59" fill="none" xmlns="http://www.w3.org/2000/svg">
<g clip-path="url(#clip0_21_114)">
<path d="M1.40899 32.2586C0.616432 32.2586 0 31.6433 0 30.8522V1.40637C0 0.615286 0.616432 0 1.40899 0C2.20154 0 2.81797 0.615286 2.81797 1.40637V30.8522C2.81797 31.6433 2.20154 32.2586 1.40899 32.2586Z" fill="#F0F0F5"/>
<path d="M1.40899 58.3643C0.616432 58.3643 0 57.749 0 56.9579V27.5121C0 26.721 0.616432 26.1057 1.40899 26.1057C2.20154 26.1057 2.81797 26.721 2.81797 27.5121V56.9579C2.81797 57.6611 2.20154 58.3643 1.40899 58.3643Z" fill="#F0F0F5"/>
<path d="M45.616 58.3643C44.8234 58.3643 44.207 57.749 44.207 56.9579V32.2586C44.207 31.4675 44.8234 30.8522 45.616 30.8522C46.4085 30.8522 47.0249 31.4675 47.0249 32.2586V56.9579C47.0249 57.749 46.4085 58.3643 45.616 58.3643Z" fill="#F0F0F5"/>
<path d="M45.616 32.3465C44.8234 32.3465 44.207 31.7312 44.207 30.9401V6.15286C44.207 5.36178 44.8234 4.74649 45.616 4.74649C46.4085 4.74649 47.0249 5.36178 47.0249 6.15286V30.8522C47.0249 31.6433 46.4085 32.3465 45.616 32.3465Z" fill="#F0F0F5"/>
<path d="M44.4711 47.2012H1.40899C0.616432 47.2012 0 46.5859 0 45.7949C0 45.0038 0.616432 44.3885 1.40899 44.3885H44.4711C45.2637 44.3885 45.8801 45.0038 45.8801 45.7949C45.8801 46.5859 45.2637 47.2012 44.4711 47.2012Z" fill="#F0F0F5"/>
<path d="M44.4712 21.1834H1.49706C0.704506 21.1834 0.0880737 20.5681 0.0880737 19.7771C0.0880737 18.986 0.704506 18.3707 1.49706 18.3707H44.4712C45.2637 18.3707 45.8801 18.986 45.8801 19.7771C45.8801 20.5681 45.2637 21.1834 44.4712 21.1834Z" fill="#F0F0F5"/>
<path d="M13.1212 46.1464C12.3286 46.1464 11.7122 45.5311 11.7122 44.7401C11.7122 40.6089 10.6555 37.7082 8.63004 36.0382C5.81207 33.7528 1.84929 34.456 1.84929 34.5439C1.05674 34.7197 0.352243 34.1923 0.176119 33.4012C-4.08292e-06 32.6101 0.528365 31.907 1.32092 31.7312C1.49704 31.6433 6.60462 30.6764 10.4793 33.8407C13.2092 36.0382 14.6182 39.7299 14.6182 44.7401C14.5302 45.5311 13.9137 46.1464 13.1212 46.1464Z" fill="#F0F0F5"/>
<path d="M13.1212 20.1287C12.3286 20.1287 11.7122 19.5134 11.7122 18.7223C11.7122 14.5911 10.6555 11.6904 8.63004 10.0204C5.81207 7.73504 1.84929 8.43822 1.84929 8.52612C1.05674 8.70191 0.352243 8.17453 0.176119 7.38344C-4.08292e-06 6.59236 0.528365 5.88918 1.32092 5.71338C1.49704 5.71338 6.60462 4.65861 10.4793 7.82293C13.2092 10.0204 14.6182 13.7121 14.6182 18.7223C14.5302 19.5134 13.9137 20.1287 13.1212 20.1287Z" fill="#F0F0F5"/>
<path d="M44.5592 40.3452H13.2092C12.4167 40.3452 11.8003 39.7299 11.8003 38.9388C11.8003 38.1477 12.4167 37.5324 13.2092 37.5324H44.5592C45.3518 37.5324 45.9682 38.1477 45.9682 38.9388C45.9682 39.7299 45.3518 40.3452 44.5592 40.3452Z" fill="#F0F0F5"/>
<path d="M44.5592 14.3274H13.2092C12.4167 14.3274 11.8003 13.7121 11.8003 12.921C11.8003 12.1299 12.4167 11.5146 13.2092 11.5146H44.5592C45.3518 11.5146 45.9682 12.1299 45.9682 12.921C45.9682 13.7121 45.3518 14.3274 44.5592 14.3274Z" fill="#F0F0F5"/>
</g>
<defs>
<clipPath id="clip0_21_114">
<rect width="47.0249" height="58.3643" fill="white"/>
</clipPath>
</defs>
</svg>
