<svg width="300" height="200" viewBox="0 0 300 200" fill="none" xmlns="http://www.w3.org/2000/svg">
<g clip-path="url(#clip0_7_191)">
<path d="M281.194 189.807L277.824 192.002L267.77 180.028L272.743 176.789L281.194 189.807Z" fill="#A0616A"/>
<path d="M283.598 193.251L273.236 200L273.151 199.869C272.455 198.797 272.213 197.493 272.478 196.243C272.742 194.993 273.492 193.899 274.561 193.202L275.52 190.531L279.986 189.669L280.89 189.08L283.598 193.251Z" fill="#2F2E41"/>
<path d="M223.447 195.558L219.428 195.558L217.516 180.029L223.448 180.029L223.447 195.558Z" fill="#A0616A"/>
<path d="M223.589 199.758L211.229 199.757V199.601C211.229 198.323 211.736 197.097 212.638 196.194C213.54 195.29 214.764 194.782 216.04 194.782L218.298 193.066L222.51 194.782H223.589L223.589 199.758Z" fill="#2F2E41"/>
<path d="M265.05 100.565L229.008 101.359L225.436 105.832C225.436 105.832 225.745 104.255 225.47 105.987C225.195 107.719 218.241 142.257 219.556 143.415C220.87 144.574 217.063 152.571 216.784 153.059C216.504 153.547 213.491 177.62 216.784 179.599L218.021 188.002H223.777C223.777 188.002 229.543 181.318 228.382 180.106C227.222 178.895 230.541 174.866 230.668 172.705C230.794 170.545 232.006 160.746 231.067 159.174C230.129 157.603 228.859 151.707 231.241 149.421C233.623 147.135 244.731 119.044 244.731 119.044C244.731 119.044 247.959 151.976 247.951 154.562C247.941 157.925 250.146 156.26 250.146 159.213C250.146 159.809 257.324 175.139 262.149 179.93L272.125 187.618L276.73 184.158V179.162C276.73 179.162 272.463 169.89 270.974 168.399C269.486 166.908 263.989 162.344 263.989 160.256C263.989 158.169 261.402 157.442 263.142 154.674C264.883 151.906 264.287 150.713 263.692 149.521C263.096 148.328 264.225 99.4529 264.225 99.4529L265.05 100.565Z" fill="#2F2E41"/>
<path d="M250.022 28.0943C256.037 28.0943 260.913 23.2099 260.913 17.1848C260.913 11.1596 256.037 6.27524 250.022 6.27524C244.006 6.27524 239.13 11.1596 239.13 17.1848C239.13 23.2099 244.006 28.0943 250.022 28.0943Z" fill="#A0616A"/>
<path d="M258.722 104.735L261.788 95.4905L267.304 96.508L263.716 106.166C263.934 106.732 263.99 107.348 263.878 107.944C263.766 108.54 263.491 109.093 263.082 109.541C262.674 109.988 262.148 110.313 261.566 110.478C260.983 110.644 260.366 110.643 259.784 110.476C259.201 110.309 258.677 109.983 258.27 109.534C257.863 109.085 257.588 108.531 257.478 107.934C257.368 107.338 257.426 106.722 257.646 106.157C257.866 105.592 258.238 105.099 258.722 104.735Z" fill="#A0616A"/>
<path d="M195.141 86.8697L202.653 80.6834L206.779 84.4887L198.605 90.7462C198.489 91.3415 198.209 91.8925 197.797 92.3372C197.385 92.7819 196.858 93.1027 196.274 93.2635C195.69 93.4244 195.073 93.4189 194.492 93.2477C193.911 93.0764 193.389 92.7463 192.985 92.2943C192.581 91.8423 192.311 91.2864 192.205 90.6892C192.099 90.0919 192.162 89.4769 192.386 88.9133C192.61 88.3497 192.987 87.8598 193.473 87.4988C193.96 87.1378 194.537 86.9199 195.141 86.8697Z" fill="#A0616A"/>
<path d="M236.981 15.2762C238.155 15.6414 239.287 15.8566 240.051 14.8919C240.815 13.9271 240.615 12.824 241.751 12.3589C242.701 12.0398 243.735 12.0878 244.652 12.4934C244.817 12.5549 244.978 12.6241 245.135 12.6933C245.224 12.6164 245.312 12.5434 245.408 12.4742C246.13 11.9599 247.021 11.7426 247.898 11.8669C247.257 12.1771 246.729 12.6813 246.39 13.3083C246.705 13.4658 247.023 13.6234 247.346 13.758C248.7 14.313 250.165 14.5443 251.624 14.4336C253.084 14.3228 254.497 13.8731 255.753 13.1199C254.494 16.4409 255.473 17.6247 257.318 20.6574L257.391 20.8342C257.207 20.0385 259.621 19.1199 259.621 20.273C259.515 21.4544 259.257 22.6171 258.853 23.7323C261.221 20.1615 262.618 15.9835 261.701 11.9745C261.505 11.1327 261.417 10.2295 260.883 9.54527C260.35 8.86496 259.368 8.46521 258.592 8.84958C258.496 7.546 258.049 6.29285 257.299 5.22338C256.549 4.15391 255.523 3.30809 254.331 2.77582C253.14 2.24356 251.826 2.04476 250.53 2.20055C249.235 2.35634 248.006 2.8609 246.973 3.6606C246.014 4.40243 245.258 5.37489 244.402 6.23972C243.547 7.10457 242.534 7.8925 241.336 8.10774C240.577 8.24228 239.721 8.16156 239.115 8.64204C238.412 9.19938 238.405 10.1795 238.409 11.1212C239.096 11.1016 239.773 11.2876 240.354 11.6555C239.643 11.6734 238.955 11.9155 238.389 12.3474C238.379 12.3541 238.368 12.3618 238.359 12.3704C238.152 13.954 238.236 14.2884 236.981 15.2762Z" fill="#2F2E41"/>
<path d="M275.3 51.0353C275.046 49.8184 274.545 48.6671 273.826 47.6534C273.108 46.6398 272.188 45.7857 271.125 45.1446C271.045 44.7374 270.904 44.4769 270.688 44.3998C267.592 43.2975 258.95 38.2048 258.95 38.2048L258.226 32.3814L242.588 31.6288L238.586 38.2049C238.586 38.2049 228.221 39.2485 228.413 43.0495C225.903 46.186 214.728 60.2004 208.03 69.4683C204.829 73.8978 202.649 77.2443 202.929 77.7985C203.872 79.6646 202.548 78.4055 201.066 78.7427C199.585 79.0799 200.303 79.9568 200.337 81.2496C200.37 82.5424 195.275 85.2627 195.275 85.2627C198.384 86.3757 202.278 90.9512 202.278 90.9512C202.278 90.9512 206.049 86.9718 206.734 86.5559C207.418 86.1399 207.8 85.5329 209.966 84.7798C212.132 84.0266 211.223 83.4533 211.38 81.857C211.537 80.2607 212.064 81.4411 215.106 79.9685C218.147 78.4959 215.678 79.0579 216.52 77.0457C217.362 75.0334 217.092 76.1351 219.831 74.4714C221.477 73.4715 223.112 72.0029 225.386 69.4683C226.896 67.786 228.687 65.6351 230.953 62.8367C230.968 62.8177 230.983 62.7979 230.998 62.7789C231.15 65.0473 231.268 67.3166 231.337 69.4683C231.535 75.5818 231.346 80.7368 230.458 82.1564C229.211 84.1489 227.1 90.817 225.385 96.6715C225.053 97.8069 224.994 99.005 225.214 100.168C225.433 101.33 225.925 102.424 226.649 103.359C227.372 104.294 228.307 105.044 229.376 105.547C230.445 106.051 231.617 106.293 232.798 106.254C243.442 105.902 259.017 105.089 262.052 103.305C263.704 103.541 265.335 103.9 266.933 104.379C266.933 104.379 268.007 98.9991 268.365 98.2818C268.723 97.5644 268.723 96.8471 270.156 95.0536C271.588 93.2603 270.514 93.2603 269.798 91.8255C269.081 90.3908 270.156 91.1082 271.946 88.2388C273.736 85.3693 271.946 87.1627 271.588 85.0106C271.23 82.8586 271.588 83.9346 273.02 81.0652C274.207 78.6876 274.902 75.568 275.717 69.4683C275.885 68.2065 276.059 66.8203 276.243 65.2834C276.851 60.2062 276.082 54.784 275.3 51.0353Z" fill="#F5F5FA"/>
<path d="M104.234 191.35C103.996 191.361 103.759 191.299 103.558 191.17C103.356 191.042 103.198 190.855 103.106 190.635C103.014 190.414 102.991 190.17 103.042 189.936C103.093 189.702 103.214 189.49 103.39 189.327L103.47 189.009C103.459 188.984 103.449 188.958 103.438 188.933C103.197 188.364 102.795 187.879 102.28 187.538C101.765 187.198 101.161 187.018 100.545 187.02C99.9277 187.022 99.3254 187.207 98.8132 187.551C98.3009 187.896 97.9016 188.384 97.6654 188.954C96.7212 191.232 95.5192 193.514 95.2232 195.922C95.0928 196.987 95.1478 198.066 95.3857 199.111C93.1682 194.266 92.0167 189 92.0093 183.669C92.0088 182.332 92.083 180.995 92.2315 179.666C92.3543 178.576 92.5245 177.494 92.7423 176.42C93.9309 170.592 96.4827 165.129 100.188 160.48C101.982 159.499 103.432 157.992 104.344 156.161C104.674 155.502 104.908 154.8 105.037 154.074C104.835 154.101 104.274 151.014 104.427 150.825C104.145 150.397 103.64 150.184 103.333 149.765C101.801 147.686 99.6911 148.049 98.5897 150.875C96.2366 152.065 96.2138 154.037 97.6577 155.935C98.5762 157.142 98.7024 158.775 99.5084 160.068C99.4255 160.174 99.3392 160.277 99.2563 160.383C97.7406 162.336 96.4195 164.432 95.312 166.643C95.5813 164.166 95.2599 161.661 94.3741 159.334C93.4764 157.164 91.7937 155.337 90.312 153.462C88.5321 151.209 84.8824 152.192 84.5689 155.048C84.5658 155.076 84.5629 155.103 84.56 155.131C84.7801 155.255 84.9955 155.387 85.2063 155.527C85.4711 155.704 85.6763 155.957 85.795 156.253C85.9137 156.549 85.9404 156.874 85.8715 157.186C85.8026 157.497 85.6414 157.781 85.409 157.999C85.1765 158.217 84.8838 158.36 84.569 158.408L84.5368 158.413C84.6152 159.208 84.7538 159.995 84.9514 160.769C83.0504 168.133 87.1544 170.815 93.0142 170.935C93.1436 171.001 93.2696 171.068 93.399 171.131C92.2863 174.29 91.5884 177.58 91.3227 180.919C91.1724 182.888 91.1812 184.867 91.3493 186.836L91.3393 186.766C90.9148 184.577 89.7491 182.602 88.0392 181.174C85.4996 179.085 81.9116 178.315 79.1718 176.635C78.8806 176.448 78.542 176.348 78.196 176.347C77.85 176.346 77.5109 176.445 77.2188 176.631C76.9268 176.816 76.6938 177.082 76.5475 177.396C76.4012 177.71 76.3476 178.06 76.393 178.403C76.3967 178.428 76.4004 178.452 76.4042 178.477C76.8127 178.643 77.2103 178.835 77.5949 179.051C77.815 179.176 78.0305 179.308 78.2413 179.447C78.5061 179.625 78.7113 179.878 78.8299 180.174C78.9486 180.47 78.9753 180.795 78.9064 181.106C78.8375 181.418 78.6763 181.701 78.4439 181.919C78.2115 182.138 77.9187 182.28 77.6039 182.329L77.5717 182.334C77.5485 182.337 77.5286 182.34 77.5054 182.344C78.2032 184.013 79.1827 185.549 80.4008 186.885C81.5894 193.314 86.6945 193.923 92.1552 192.051H92.1586C92.7577 194.66 93.6258 197.198 94.7489 199.626H104.003C104.036 199.523 104.066 199.417 104.095 199.314C103.239 199.368 102.379 199.317 101.535 199.161C102.221 198.317 102.908 197.467 103.595 196.623C103.61 196.607 103.624 196.591 103.638 196.573C103.986 196.141 104.338 195.713 104.686 195.281L104.686 195.28C104.705 193.956 104.553 192.635 104.234 191.35Z" fill="#F2F2F2"/>
<path d="M33.0588 177.331L35.612 180.034L47.4675 171.236L43.6993 167.246L33.0588 177.331Z" fill="#C78F8F"/>
<path d="M37.2427 178.826L34.3522 176.106L33.6424 175.44L26.2837 181.333L28.1979 183.359L30.4511 181.912L29.416 184.649L34.4912 190.022C34.7344 190.28 35.0534 190.453 35.4018 190.517C35.7501 190.58 36.1095 190.53 36.4275 190.374C36.7455 190.218 37.0055 189.965 37.1695 189.65C37.3335 189.336 37.3928 188.978 37.339 188.627L36.2437 181.529L38.1738 179.7L37.2427 178.826Z" fill="#2F2E41"/>
<path d="M89.1719 78.9118L88.3624 87.7641C88.3624 87.7641 86.9494 94.4334 87.9278 93.8929C88.9062 93.3523 87.152 95.7853 87.614 97.8952C88.076 100.005 83.6677 115.739 85.6643 114.109C87.6609 112.479 84.5104 123.738 82.5179 129.293C81.9078 131.011 81.2809 132.749 80.65 134.474C80.5255 134.824 80.4009 135.169 80.2724 135.518C79.4545 137.763 78.6367 139.975 77.8523 142.062C77.7403 142.354 77.6322 142.644 77.5244 142.932C77.5202 142.94 77.5202 142.948 77.5161 142.948C74.9342 149.755 72.7217 155.11 71.8376 155.996C71.3769 156.457 64.0671 161.746 56.6992 167.043C48.9661 172.603 41.1706 178.174 41.1706 178.174L33.8898 170.524C33.8898 170.524 34.0641 170.474 34.3921 170.374C34.9981 170.199 36.1189 169.871 37.5884 169.434C43.715 167.625 35.9321 164.81 41.4945 162.798C43.0634 162.233 44.1095 161.792 44.346 161.559C45.7283 160.208 47.5838 156.985 48.4596 158.337C49.3354 159.688 53.308 149.647 54.4535 148.653C55.0679 148.116 57.0728 145.609 58.7913 143.405C60.2689 141.509 61.5391 139.834 61.5391 139.834C61.5391 139.834 61.564 138.936 61.6013 137.505C61.6554 135.389 61.7343 132.1 61.8174 128.807C61.8131 128.803 61.8131 128.803 61.8174 128.803C61.8464 127.564 61.8754 126.325 61.9046 125.148C61.9252 124.237 61.9459 123.36 61.9668 122.549C62.0207 120.121 62.058 118.283 62.058 117.826C62.058 116.325 62.058 117.493 63.241 116.587C63.4177 116.448 63.5855 116.298 63.7433 116.138C63.9962 115.91 64.2295 115.661 64.4407 115.393C64.5279 115.206 63.9841 115.46 63.2783 115.319C62.8962 115.242 62.5428 115.06 62.2572 114.795C60.7712 113.456 62.3736 109.34 62.3736 109.34C58.9947 102.57 59.2397 97.0196 60.821 92.741C62.0036 89.6708 63.8805 86.9169 66.3044 84.6956C67.2269 83.815 68.232 83.0254 69.3057 82.3379L69.4095 81.7767L70.551 75.5855C71.158 75.2515 71.7893 74.9638 72.4395 74.7249C74.4671 73.9962 76.6426 73.7791 78.7738 74.0929C80.8919 74.3999 82.9426 75.0649 84.8384 76.0596C86.3881 76.8394 87.8423 77.7966 89.1719 78.9118Z" fill="#2F2E41"/>
<path d="M57.2911 191.123L60.99 191.467L64.1069 177.021L58.6472 176.512L57.2911 191.123Z" fill="#C78F8F"/>
<path d="M67.9441 196.785L62.4481 192.174L62.6972 189.521L61.4189 189.479L57.4589 189.351H57.4547L56.4834 189.317L54.8354 198.606L57.6124 198.864L58.3471 196.286L59.3725 199.03L60.8419 199.168L66.7237 199.716C66.7736 199.72 66.8275 199.725 66.8773 199.725C67.1112 199.725 67.3424 199.675 67.5557 199.579C67.7689 199.483 67.9593 199.343 68.1143 199.168C68.3551 198.904 68.5024 198.567 68.5335 198.211C68.5578 197.943 68.5168 197.674 68.4142 197.425C68.3115 197.177 68.1502 196.957 67.9441 196.785Z" fill="#2F2E41"/>
<path d="M77.8523 142.062C76.4451 149.734 70.4885 167.721 66.8856 178.249C65.2459 183.06 64.1004 186.315 64.1004 186.315L62.2325 185.725H62.2282L59.0694 184.727L57.9196 184.361H57.9153L56.5207 183.916C56.5207 183.916 56.6826 175.326 56.6992 167.043C56.7116 163.571 56.695 160.149 56.6287 157.438C56.5539 154.482 56.4252 152.366 56.2136 151.946C55.3376 150.224 56.803 150.041 58.3513 149.609C59.9036 149.173 58.6916 148.516 58.0896 147.119C57.6831 146.187 58.4841 144.944 59.0528 144.237C59.2097 144.038 59.3774 143.848 59.555 143.667C59.555 143.667 59.281 143.572 58.7913 143.405C60.2689 141.509 61.5391 139.834 61.5391 139.834C61.5391 139.834 61.564 138.936 61.6013 137.505C61.6554 135.389 61.7343 132.1 61.8174 128.807C61.8131 128.803 61.8131 128.803 61.8174 128.803C61.8464 127.564 61.8753 126.325 61.9046 125.148C64.2788 126.973 66.5867 128.761 68.6788 130.416C68.6813 130.418 68.6834 130.421 68.6849 130.424C68.6863 130.426 68.6871 130.43 68.6871 130.433C73.7138 134.412 77.4871 137.605 78.0184 138.62C78.2591 139.077 78.176 140.3 77.8523 142.062Z" fill="#2F2E41"/>
<path d="M299.585 199.998H0.415092C0.305003 199.998 0.199422 199.955 0.121577 199.877C0.0437325 199.799 0 199.693 0 199.583C0 199.472 0.0437325 199.366 0.121577 199.289C0.199422 199.211 0.305003 199.167 0.415092 199.167H299.585C299.695 199.167 299.801 199.211 299.878 199.289C299.956 199.366 300 199.472 300 199.583C300 199.693 299.956 199.799 299.878 199.877C299.801 199.955 299.695 199.998 299.585 199.998Z" fill="#E6E6E6"/>
<path d="M68.455 63.9481L69.2329 71.1754L68.7754 80.6526L89.7314 78.1587L91.7002 63.9481L89.1914 63.9731L68.455 63.9481Z" fill="#FFB6B6"/>
<path d="M86.2803 40.6046L78.3936 34.3677L74.2535 34.1266L68.1105 38.0687L66.6063 45.7556L63.0488 54.4116L68.2666 77.7716C68.2666 77.7716 68.756 79.4479 67.4736 79.6492C66.1912 79.8506 66.3449 82.3215 66.3449 82.3215C66.3449 82.3215 66.6061 84.4629 65.3608 84.6515C64.1155 84.8401 60.795 84.8401 63.7006 88.5822C66.6063 92.3244 89.5882 78.171 89.5882 78.171L92.9261 60.6269C92.9261 60.6269 99.3996 51.9177 92.4282 46.9297L86.2803 40.6046Z" fill="#F5F5FA"/>
<path d="M51.8509 93.6426C51.5034 93.2082 51.2552 92.7028 51.1238 92.1619C50.9924 91.6211 50.9809 91.0579 51.0903 90.5122C51.1997 89.9664 51.4272 89.4513 51.7568 89.0031C52.0864 88.555 52.5101 88.1847 52.998 87.9183L62.9183 54.5697L69.1214 57.6979L58.318 89.6622C58.7104 90.5129 58.7777 91.4783 58.507 92.3755C58.2363 93.2726 57.6466 94.0391 56.8494 94.5297C56.0523 95.0203 55.1031 95.201 54.1819 95.0375C53.2606 94.874 52.4313 94.3777 51.8509 93.6426Z" fill="#C78F8F"/>
<path d="M69.5351 37.7601C69.5351 37.7601 67.7619 36.8161 66.549 40.901C65.578 44.1712 57.699 63.6503 57.5985 68.3861C56.95 68.5238 56.3658 68.8736 55.9377 69.3805C55.5096 69.8874 55.262 70.5225 55.234 71.1858L64.9757 72.4935C66.678 71.0553 67.1246 69.1129 66.466 68.5363L68.5811 62.7497L77.4053 44.3386L70.8289 38.4196L69.5351 37.7601Z" fill="#F5F5FA"/>
<path d="M121.588 82.6809C121.714 82.1387 121.72 81.5755 121.605 81.0309C121.49 80.4863 121.257 79.9736 120.923 79.5289C120.588 79.0841 120.161 78.7182 119.67 78.4569C119.179 78.1956 118.638 78.0452 118.083 78.0164L95.3257 51.9822L90.4983 57.7521L114.039 81.8933C114.052 82.8304 114.408 83.73 115.04 84.4217C115.671 85.1133 116.534 85.549 117.464 85.6461C118.395 85.7431 119.329 85.4949 120.089 84.9484C120.849 84.4019 121.382 83.5951 121.588 82.6809Z" fill="#C78F8F"/>
<path d="M81.5178 39.9541C81.5178 39.9541 82.7091 38.3348 85.5662 41.4926C87.8535 44.0206 103.367 58.1712 105.502 62.3978C106.146 62.241 106.824 62.3033 107.429 62.5749C108.034 62.8465 108.531 63.312 108.843 63.898L100.624 69.2969C98.4679 68.7375 97.2266 67.1795 97.5716 66.3744L93.1663 62.0731L77.2615 49.2949L80.6359 41.1093L81.5178 39.9541Z" fill="#F5F5FA"/>
<path d="M191.1 94.4338C190.444 94.2065 189.901 93.7313 189.589 93.1095C189.276 92.4877 189.218 91.7683 189.427 91.1044C189.472 90.9701 189.527 90.8397 189.593 90.7146L183.308 83.8378L185.67 79.4155L193.263 89.7683C193.759 90.0828 194.138 90.5532 194.34 91.1061C194.542 91.6589 194.555 92.2631 194.378 92.8243C194.274 93.1426 194.108 93.4374 193.891 93.6917C193.673 93.946 193.408 94.1549 193.11 94.3065C192.811 94.4581 192.486 94.5493 192.153 94.575C191.82 94.6008 191.484 94.5605 191.167 94.4564C191.144 94.4492 191.122 94.4416 191.1 94.4338Z" fill="#FFB6B6"/>
<path d="M150.806 42.2006C150.598 43.1716 150.576 44.1732 150.741 45.1525C150.784 45.4296 150.844 45.7039 150.92 45.9738C151.201 46.9827 151.469 47.9123 151.727 48.7511C151.879 49.2721 152.035 49.763 152.184 50.2187C153.044 52.8787 153.715 54.3848 154.192 54.7017C154.422 54.8567 154.654 54.9987 154.879 55.1373C156.031 55.8435 156.866 56.3553 156.308 57.6586C156.227 57.8448 156.13 58.0239 156.02 58.1943C155.835 58.4806 155.63 58.7538 155.408 59.0119C155.281 59.1579 155.164 59.3121 155.057 59.4736C154.918 59.6797 154.858 59.8534 154.933 60.0106C155.027 60.2041 155.289 60.3003 155.851 60.3275C155.94 60.3315 156.043 60.337 156.152 60.3366C156.188 60.3389 156.225 60.3374 156.266 60.3378C156.338 60.3388 156.42 60.3394 156.503 60.3363C157.198 60.323 158.094 60.6892 159.053 61.2483C161.883 62.8996 165.219 66.2234 165.259 66.2647L186.084 87.5943L186.49 87.322L187.454 86.6735L187.787 86.4506L188.167 86.1943L189.824 85.084L190.661 84.5238L185.289 74.6452L184.704 73.5714L184.203 72.6448L173.949 53.781L169.876 47.2958L168.966 45.851L165.093 39.6893C164.546 38.8175 163.833 38.0621 162.995 37.4663C162.156 36.8704 161.209 36.4459 160.207 36.2168C159.205 35.9877 158.167 35.9585 157.154 36.1311C156.14 36.3036 155.171 36.6743 154.3 37.2222C154.242 37.2591 154.183 37.2969 154.126 37.3354C152.431 38.4645 151.241 40.2089 150.806 42.2006Z" fill="#F5F5FA"/>
<path d="M152.188 191.255L148.373 191.222L146.684 176.138L152.315 176.186L152.188 191.255Z" fill="#FFB6B6"/>
<path d="M153.2 189.492L152.204 189.426L148.14 189.147L146.832 189.06L146.808 191.791L140.714 195.933C140.413 196.137 140.185 196.433 140.064 196.777C139.943 197.12 139.934 197.494 140.04 197.843C140.146 198.191 140.36 198.497 140.652 198.715C140.943 198.933 141.296 199.052 141.66 199.055L149.244 199.118L150.572 196.423L151.058 199.134L153.922 199.159L153.2 189.492Z" fill="#2F2E41"/>
<path d="M192.357 188.462L188.71 189.585L182.554 175.715L187.937 174.058L192.357 188.462Z" fill="#FFB6B6"/>
<path d="M192.791 186.477L191.82 186.715L187.864 187.675L186.59 187.987L187.391 190.602L182.829 196.39C182.604 196.676 182.476 197.027 182.463 197.391C182.451 197.755 182.555 198.114 182.76 198.414C182.965 198.715 183.261 198.942 183.604 199.063C183.948 199.183 184.32 199.191 184.668 199.084L191.92 196.851L192.372 193.879L193.655 196.315L196.39 195.471L192.791 186.477Z" fill="#2F2E41"/>
<path d="M144.514 64.4156L137.233 85.6102L136.993 87.3062C135.158 89.0511 137.463 89.6259 136.599 90.086C135.734 90.5461 135.153 91.836 136.318 92.0665C137.482 92.2969 141.237 174.964 146.189 178.174C151.141 181.384 154.155 183.706 153.246 179.006C152.879 177.112 153.397 166.959 154.147 155.51C154.232 154.213 155.574 152.839 154.41 151.578C153.246 150.316 154.553 149.486 154.627 148.439C155.671 133.488 156.877 118.728 156.877 118.728C156.877 118.728 164.595 145.279 166.6 143.224C168.604 141.169 167.811 146.229 168.423 147.741C168.935 149.005 166.751 151.487 169.961 151.525C173.17 151.563 180.707 177.372 181.472 177.343C182.987 177.285 187.245 177.448 189.774 176.927C191.022 176.669 185.479 157.13 180.851 140.257C180.482 138.911 178.473 138.88 179.765 136.282C181.057 133.684 174.628 116.875 175.18 116.098C176.644 114.034 177.202 113.138 175.758 113.002C174.314 112.867 173.887 113.661 173.809 111.659C173.731 109.657 173.482 104.722 173.482 104.722C173.482 104.722 172.436 85.2006 165.111 74.4155L164.486 68.0073L144.514 64.4156Z" fill="#2F2E41"/>
<path d="M162.703 23.9499L153.048 25.327L152.465 32.3302L147.701 39.7959C147.701 39.7959 137.11 47.2614 144.496 59.0547C141.686 69.2138 138.891 78.9567 136.227 85.4523C134.151 98.3419 152.745 99.5773 174 95.0155C174 95.0155 173.707 89.5041 171.778 86.8545C169.849 84.2049 170.899 83.6264 170.899 83.6264L169.551 78.6764C170.314 71.5212 167.739 70.879 166.528 67.5732L170.203 33.2726L162.703 23.9499Z" fill="#F5F5FA"/>
<path d="M116.352 83.9038C116.455 83.2152 116.821 82.5938 117.374 82.1718C117.927 81.7498 118.622 81.5604 119.312 81.6441C119.452 81.6633 119.59 81.6941 119.725 81.7362L125.318 74.2835L130.092 75.7957L121.328 85.1752C121.111 85.722 120.719 86.1814 120.213 86.4816C119.708 86.7819 119.118 86.906 118.534 86.8348C117.865 86.7464 117.258 86.3953 116.847 85.8587C116.436 85.322 116.254 84.6438 116.342 83.9731C116.345 83.95 116.349 83.9269 116.352 83.9038Z" fill="#FFB6B6"/>
<path d="M166.03 37.5031C165.893 37.3326 165.744 37.1663 165.586 37.0041C164.49 35.8722 163.078 35.0984 161.535 34.7838C159.992 34.4693 158.391 34.6287 156.94 35.2412C156.799 35.2993 156.658 35.3659 156.521 35.4325C151.56 37.873 148.883 39.4988 148.559 40.2598C148.447 40.5176 148.352 40.7712 148.256 41.0164C148.165 41.2576 148.078 41.4862 147.986 41.6941C147.605 42.584 147.164 43.137 146.044 42.8875C145.672 42.7965 145.314 42.6582 144.977 42.476C144.823 42.4011 144.682 42.3221 144.549 42.2472C144.068 41.9812 143.719 41.79 143.483 41.9646C143.254 42.1349 143.246 42.5673 143.454 43.5695C143.522 43.9877 143.511 44.4152 143.42 44.8292C143.146 46.037 142.716 47.2041 142.142 48.3011C141.281 50.0208 140.314 51.6845 139.244 53.2823L129.369 67.386L128.701 68.3382L127.971 69.3819L122.143 77.7061L122.487 78.0594L123.932 79.5355L124.251 79.864L124.542 80.1633L125.293 80.9325L125.999 81.6518L141.743 68.8039L143.499 67.3693L146.646 64.7999L153.092 59.5401L165.292 48.2305C166.062 47.5222 166.681 46.6655 167.113 45.7117C167.544 44.7579 167.779 43.7265 167.803 42.6796C167.803 42.609 167.807 42.5424 167.807 42.4717C167.812 40.6586 167.183 38.901 166.03 37.5031Z" fill="#F5F5FA"/>
<path d="M156.907 23.695C162.865 23.695 167.696 18.8564 167.696 12.8878C167.696 6.91911 162.865 2.08055 156.907 2.08055C150.948 2.08055 146.118 6.91911 146.118 12.8878C146.118 18.8564 150.948 23.695 156.907 23.695Z" fill="#FFB6B6"/>
<path d="M171.205 27.8735C172.653 29.9493 173.621 32.322 174.04 34.8193C172.873 35.5671 171.515 35.9599 170.13 35.9501C170.083 35.7684 170.036 35.5866 169.982 35.4049C169.58 33.9977 168.983 32.6542 168.208 31.4137C168.314 32.7513 168.133 34.0962 167.677 35.3578C166.945 35.0246 166.161 34.8218 165.359 34.7588C164.706 34.7587 164.062 34.9108 163.478 35.203C162.799 32.9483 162.174 30.8753 161.731 29.3879C161.717 33.1166 156.261 36.3674 150.308 35.8962C150.093 35.7616 152.25 29.6302 152.042 29.4888C151.565 29.1725 151.101 28.8293 150.637 28.4927C152.586 25.4775 154.703 22.2468 154.34 21.7623C154.367 22.3613 152.23 25.2419 149.905 27.961C148.615 27.012 155.946 11.5724 152.324 10.3205C152.263 10.8657 151.464 10.8657 150.49 10.7513C150.233 9.85178 149.85 8.99305 149.354 8.20042C149.419 8.99887 149.323 9.80217 149.072 10.5628C148.11 10.5631 147.15 10.6646 146.21 10.8657C145.992 10.5226 145.752 10.1943 145.491 9.88303C145.516 10.2624 145.505 10.6433 145.457 11.0205C144.496 11.2291 143.703 11.4714 143.589 11.6666C142.837 11.3906 144.12 10.1455 143.65 9.4994C142.454 7.88411 144.227 5.52846 145.35 3.85928C147.654 0.440236 152.714 -0.74433 156.295 1.30844C156.456 0.749805 157.283 0.379646 158.344 0.13062C158.794 0.0312793 159.255 -0.0116817 159.715 0.00273352C164.284 0.083493 170.627 3.85927 170.875 8.42927C170.896 8.88694 170.929 9.38498 170.963 9.91668C171.285 15.0318 170.889 19.7499 174.376 23.492C175.639 24.8448 175.653 31.2522 175.169 34.5502C173.912 33.2242 173.019 28.0687 171.205 27.8735Z" fill="#2F2E41"/>
<path d="M67.085 17.3815C66.1373 19.7458 63.4636 24.3952 63.1015 26.9315L63.2645 26.7709C63.5754 27.303 63.9288 27.809 64.321 28.2841C65.0241 27.5444 65.8733 26.9596 66.8144 26.5668C66.3005 27.623 66.0028 28.7717 65.939 29.945C66.948 33.1131 71.6125 31.7022 74.3455 31.3563C77.0747 34.4834 80.7057 35.2994 85.4605 33.5016C86.7903 33.6387 88.2789 33.722 89.2108 32.9349C90.1426 32.1478 89.5877 30.6901 90.0891 29.5876C93.6602 21.7346 90.3645 18.9012 87.5644 15.3404C86.9482 14.5567 86.9507 13.3873 86.2009 12.6397C85.1606 11.6034 83.5658 11.2846 82.0955 11.0292C82.4774 11.0494 82.8581 10.9707 83.2009 10.8008C83.5437 10.6309 83.8371 10.3754 84.0528 10.059C84.242 9.74026 84.3396 9.37534 84.3349 9.00452C84.3302 8.6337 84.2234 8.27138 84.0261 7.95753C83.5003 7.08427 82.4076 6.57646 81.3534 6.4496C80.3148 6.37895 79.2715 6.46878 78.2602 6.71594C77.6051 6.80225 76.9707 7.00536 76.3871 7.31565C76.1118 7.46282 75.8878 7.69068 75.7452 7.96877C75.6026 8.24686 75.5481 8.56193 75.5891 8.87186C75.6769 9.15807 75.8281 9.42073 76.0314 9.64023C76.2348 9.85974 76.4849 10.0304 76.7633 10.1396C77.1877 10.3193 77.6341 10.4417 78.0907 10.5036C75.9933 10.2309 73.8628 10.6045 71.9825 11.5745C69.626 12.8336 68.0359 15.0185 67.085 17.3815Z" fill="#2F2E41"/>
<path d="M79.8445 30.6363C84.4966 30.6363 88.2679 26.8587 88.2679 22.1988C88.2679 17.5388 84.4966 13.7612 79.8445 13.7612C75.1924 13.7612 71.4211 17.5388 71.4211 22.1988C71.4211 26.8587 75.1924 30.6363 79.8445 30.6363Z" fill="#C78F8F"/>
<path d="M71.7391 17.6747C72.2275 19.1532 73.6232 19.6297 74.9132 19.9268C75.3199 20.0218 75.7292 20.1103 76.1422 20.189C76.2946 19.9982 76.4567 19.8111 76.626 19.6344C77.329 18.8947 78.1782 18.3098 79.1194 17.917C78.7124 18.7514 78.4419 19.6458 78.3183 20.5662C79.0981 20.6795 79.8823 20.7721 80.6708 20.844C81.3379 20.9863 82.0341 20.8663 82.6154 20.509C83.1968 20.1517 83.6189 19.5844 83.7945 18.9242C84.5123 20.1 85.3611 21.2073 86.5218 21.6744C87.1855 21.9133 87.9082 21.9329 88.5839 21.7304C89.2595 21.528 89.8527 21.114 90.2764 20.5492C90.9457 19.6279 91.4097 18.5735 91.6372 17.4572C91.9666 16.1478 92.1495 14.6395 91.5028 13.8088C90.9847 13.1365 90.091 13.1244 89.2663 13.184C87.4462 13.3239 85.6453 13.6509 83.892 14.16L83.7436 14.4943C84.0449 12.6811 83.3913 10.9366 82.1821 10.3162C81.3664 9.90135 80.3851 9.97091 79.4316 10.0551C78.2069 10.1098 76.9968 10.3442 75.84 10.7508C74.5129 11.2621 73.3759 12.1717 72.5847 13.3551C71.7383 14.6423 71.3178 16.3978 71.7391 17.6747Z" fill="#2F2E41"/>
<path d="M83.7474 9.78846C83.6643 9.76389 83.8796 9.79545 83.8049 9.79747C83.842 9.79532 83.8789 9.79015 83.9152 9.782C83.9213 9.78076 84.0052 9.75396 83.9495 9.77366C84.0746 9.73619 84.1862 9.66324 84.2708 9.56361C84.4687 9.31852 84.6239 9.04178 84.73 8.74502C84.8638 8.35286 85.079 7.99349 85.3613 7.69049C85.4415 7.60988 85.5394 7.54932 85.6473 7.51375C85.7552 7.47818 85.8699 7.46858 85.9822 7.48575C86.0944 7.50291 86.2011 7.54636 86.2935 7.61255C86.3858 7.67874 86.4613 7.76581 86.5138 7.8667C86.6203 8.25592 86.5838 8.67052 86.4109 9.03507C86.2902 9.40602 86.1105 9.75503 85.8788 10.0686C85.4906 10.5815 84.9617 10.9701 84.3568 11.1872C83.6567 11.4419 82.8931 11.4637 82.1796 11.2495C82.0853 11.2103 82.0044 11.1445 81.9468 11.0601C81.8892 10.9757 81.8574 10.8764 81.8552 10.7742C81.8529 10.672 81.8804 10.5713 81.9343 10.4845C81.9882 10.3976 82.0661 10.3284 82.1586 10.2851L83.3487 9.79716C83.4113 9.76929 83.4787 9.75405 83.5472 9.75232C83.6157 9.75059 83.6838 9.7624 83.7478 9.78707C83.8117 9.81175 83.8701 9.8488 83.9197 9.89612C83.9693 9.94344 84.0091 10.0001 84.0369 10.0628C84.0646 10.1256 84.0797 10.1932 84.0814 10.2618C84.083 10.3304 84.0711 10.3986 84.0464 10.4626C84.0216 10.5266 83.9846 10.5851 83.9373 10.6347C83.89 10.6844 83.8333 10.7242 83.7707 10.7518L83.7684 10.7528L82.5784 11.2408L82.5574 10.2764C82.7058 10.3193 82.8586 10.3455 83.0129 10.3544C83.1775 10.3709 83.3437 10.3639 83.5063 10.3336C83.6621 10.3131 83.8152 10.2757 83.9629 10.2221C84.0575 10.1875 84.1503 10.1481 84.2409 10.104C84.2738 10.088 84.3064 10.0714 84.3387 10.0542C84.3364 10.0554 84.4749 9.97466 84.4141 10.0126C84.568 9.91408 84.7125 9.8014 84.8455 9.67602C84.8925 9.63156 84.9357 9.58333 84.9749 9.53181C85.0427 9.44838 85.1055 9.36105 85.1631 9.27028C85.2804 9.07804 85.3732 8.87193 85.4396 8.65669C85.4698 8.56624 85.4954 8.47426 85.5161 8.38115C85.5218 8.33003 85.531 8.27937 85.5437 8.22951C85.5878 8.11072 85.5353 8.29887 85.5861 8.35035L85.8055 8.51227C85.8467 8.52457 85.8901 8.52742 85.9325 8.52061C85.975 8.5138 86.0154 8.49751 86.0507 8.47295C86.0766 8.43632 86.071 8.4424 86.0336 8.49118C85.9902 8.54859 85.9504 8.60872 85.9145 8.67118C85.8359 8.81822 85.7648 8.96918 85.7015 9.12345C85.5705 9.45155 85.405 9.76471 85.2077 10.0576C85.0143 10.3538 84.7325 10.5814 84.4025 10.7078C84.0725 10.8342 83.711 10.853 83.3697 10.7616C83.2416 10.7105 83.1386 10.611 83.0831 10.4846C83.0276 10.3582 83.0239 10.2149 83.0728 10.0858C83.1252 9.95857 83.2246 9.85655 83.3504 9.80113C83.4761 9.7457 83.6184 9.74116 83.7474 9.78846Z" fill="#2F2E41"/>
</g>
<defs>
<clipPath id="clip0_7_191">
<rect width="300" height="200" fill="white"/>
</clipPath>
</defs>
</svg>
